M48
; DRILL file KiCad 10.0.3 date 2026-05-29T20:05:40
; FORMAT={-:-/ absolute / metric / decimal}
; #@! TF.CreationDate,2026-05-29T20:05:40+02:00
; #@! TF.GenerationSoftware,Kicad,Pcbnew,10.0.3
; #@! TF.FileFunction,Plated,1,2,PTH
FMAT,2
METRIC
; #@! TA.AperFunction,Plated,PTH,ComponentDrill
T1C0.400
; #@! TA.AperFunction,Plated,PTH,ComponentDrill
T2C0.600
; #@! TA.AperFunction,Plated,PTH,ComponentDrill
T3C0.800
; #@! TA.AperFunction,Plated,PTH,ComponentDrill
T4C0.900
; #@! TA.AperFunction,Plated,PTH,ComponentDrill
T5C1.000
; #@! TA.AperFunction,Plated,PTH,ComponentDrill
T6C1.100
; #@! TA.AperFunction,Plated,PTH,ComponentDrill
T7C1.300
; #@! TA.AperFunction,Plated,PTH,ComponentDrill
T8C2.200
%
G90
G05
T1
X30.61Y-36.4
X30.61Y-106.4
X31.093Y-35.233
X31.093Y-37.567
X31.093Y-105.233
X31.093Y-107.567
X32.26Y-34.75
X32.26Y-38.05
X32.26Y-104.75
X32.26Y-108.05
X33.427Y-35.233
X33.427Y-37.567
X33.427Y-105.233
X33.427Y-107.567
X33.91Y-36.4
X33.91Y-106.4
X90.61Y-36.4
X90.61Y-106.4
X91.093Y-35.233
X91.093Y-37.567
X91.093Y-105.233
X91.093Y-107.567
X92.26Y-34.75
X92.26Y-38.05
X92.26Y-104.75
X92.26Y-108.05
X93.427Y-35.233
X93.427Y-37.567
X93.427Y-105.233
X93.427Y-107.567
X93.91Y-36.4
X93.91Y-106.4
T2
X41.46Y-102.425
X45.06Y-102.425
X75.36Y-102.425
X78.96Y-102.425
X82.56Y-102.425
X86.16Y-102.425
T3
X33.76Y-70.82
X33.76Y-80.98
X42.68Y-74.9
X45.22Y-74.9
X47.76Y-74.9
T4
X40.26Y-46.4
X42.8Y-46.4
T5
X54.76Y-68.5
X54.76Y-71.04
X54.76Y-73.58
X54.76Y-76.12
X54.76Y-78.66
X54.76Y-81.2
X54.76Y-83.74
X54.76Y-86.28
X54.76Y-88.82
X54.76Y-91.36
X54.76Y-93.9
X54.76Y-96.44
X54.76Y-98.98
X54.76Y-101.52
X54.76Y-104.06
X57.66Y-44.69
X57.66Y-47.23
X57.66Y-49.77
X57.66Y-52.31
X57.66Y-54.85
X57.66Y-57.39
X70.0Y-68.5
X70.0Y-71.04
X70.0Y-73.58
X70.0Y-76.12
X70.0Y-78.66
X70.0Y-81.2
X70.0Y-83.74
X70.0Y-86.28
X70.0Y-88.82
X70.0Y-91.36
X70.0Y-93.9
X70.0Y-96.44
X70.0Y-98.98
X70.0Y-101.52
X70.0Y-104.06
X83.06Y-47.23
X83.06Y-49.77
X83.06Y-52.31
X83.06Y-54.85
T6
X38.26Y-57.9
X38.26Y-62.4
X44.76Y-57.9
X44.76Y-62.4
T7
X35.227Y-89.15
X35.227Y-94.15
X89.292Y-76.9
X89.292Y-81.9
X89.292Y-86.9
X89.292Y-91.9
T8
X32.26Y-36.4
X32.26Y-106.4
X92.26Y-36.4
X92.26Y-106.4
M30
