%TF.GenerationSoftware,KiCad,Pcbnew,10.0.3*%
%TF.CreationDate,2026-05-29T20:04:58+02:00*%
%TF.ProjectId,sensory_support_device,73656e73-6f72-4795-9f73-7570706f7274,rev?*%
%TF.SameCoordinates,Original*%
%TF.FileFunction,Soldermask,Top*%
%TF.FilePolarity,Negative*%
%FSLAX46Y46*%
G04 Gerber Fmt 4.6, Leading zero omitted, Abs format (unit mm)*
G04 Created by KiCad (PCBNEW 10.0.3) date 2026-05-29 20:04:58*
%MOMM*%
%LPD*%
G01*
G04 APERTURE LIST*
G04 Aperture macros list*
%AMRoundRect*
0 Rectangle with rounded corners*
0 $1 Rounding radius*
0 $2 $3 $4 $5 $6 $7 $8 $9 X,Y pos of 4 corners*
0 Add a 4 corners polygon primitive as box body*
4,1,4,$2,$3,$4,$5,$6,$7,$8,$9,$2,$3,0*
0 Add four circle primitives for the rounded corners*
1,1,$1+$1,$2,$3*
1,1,$1+$1,$4,$5*
1,1,$1+$1,$6,$7*
1,1,$1+$1,$8,$9*
0 Add four rect primitives between the rounded corners*
20,1,$1+$1,$2,$3,$4,$5,0*
20,1,$1+$1,$4,$5,$6,$7,0*
20,1,$1+$1,$6,$7,$8,$9,0*
20,1,$1+$1,$8,$9,$2,$3,0*%
G04 Aperture macros list end*
%ADD10C,2.000000*%
%ADD11R,2.000000X2.000000*%
%ADD12C,1.500000*%
%ADD13RoundRect,0.250000X-0.550000X-0.550000X0.550000X-0.550000X0.550000X0.550000X-0.550000X0.550000X0*%
%ADD14C,1.600000*%
%ADD15R,1.800000X1.800000*%
%ADD16C,1.800000*%
%ADD17C,0.700000*%
%ADD18C,4.400000*%
%ADD19RoundRect,0.250001X-1.149999X1.149999X-1.149999X-1.149999X1.149999X-1.149999X1.149999X1.149999X0*%
%ADD20C,2.800000*%
%ADD21RoundRect,0.250001X1.149999X-1.149999X1.149999X1.149999X-1.149999X1.149999X-1.149999X-1.149999X0*%
%ADD22R,1.600000X1.600000*%
%ADD23O,1.600000X1.600000*%
%ADD24R,1.500000X1.500000*%
G04 APERTURE END LIST*
D10*
%TO.C,U1*%
X57660000Y-44690000D03*
X57660000Y-47230000D03*
X57660000Y-49770000D03*
X57660000Y-52310000D03*
X57660000Y-54850000D03*
X57660000Y-57390000D03*
X83060000Y-49770000D03*
X83060000Y-52310000D03*
X83060000Y-54850000D03*
D11*
X83060000Y-47230000D03*
%TD*%
D12*
%TO.C,REF\u002A\u002A*%
X75360000Y-108425000D03*
X78960000Y-108425000D03*
X82560000Y-108425000D03*
X86160000Y-108425000D03*
D13*
X75360000Y-102425000D03*
D14*
X78960000Y-102425000D03*
X82560000Y-102425000D03*
X86160000Y-102425000D03*
%TD*%
D15*
%TO.C,REF\u002A\u002A*%
X40260000Y-46400000D03*
D16*
X42800000Y-46400000D03*
%TD*%
D17*
%TO.C,REF\u002A\u002A*%
X30610000Y-106400000D03*
X31093274Y-105233274D03*
X31093274Y-107566726D03*
X32260000Y-104750000D03*
D18*
X32260000Y-106400000D03*
D17*
X32260000Y-108050000D03*
X33426726Y-105233274D03*
X33426726Y-107566726D03*
X33910000Y-106400000D03*
%TD*%
D19*
%TO.C,REF\u002A\u002A*%
X89292500Y-76900000D03*
D20*
X89292500Y-81900000D03*
X89292500Y-86900000D03*
X89292500Y-91900000D03*
%TD*%
D21*
%TO.C,REF\u002A\u002A*%
X35227500Y-94150000D03*
D20*
X35227500Y-89150000D03*
%TD*%
D17*
%TO.C,REF\u002A\u002A*%
X90610000Y-36400000D03*
X91093274Y-35233274D03*
X91093274Y-37566726D03*
X92260000Y-34750000D03*
D18*
X92260000Y-36400000D03*
D17*
X92260000Y-38050000D03*
X93426726Y-35233274D03*
X93426726Y-37566726D03*
X93910000Y-36400000D03*
%TD*%
%TO.C,REF\u002A\u002A*%
X90610000Y-106400000D03*
X91093274Y-105233274D03*
X91093274Y-107566726D03*
X92260000Y-104750000D03*
D18*
X92260000Y-106400000D03*
D17*
X92260000Y-108050000D03*
X93426726Y-105233274D03*
X93426726Y-107566726D03*
X93910000Y-106400000D03*
%TD*%
D22*
%TO.C,REF\u002A\u002A*%
X54760000Y-68500000D03*
D23*
X54760000Y-71040000D03*
X54760000Y-73580000D03*
X54760000Y-76120000D03*
X54760000Y-78660000D03*
X54760000Y-81200000D03*
X54760000Y-83740000D03*
X54760000Y-86280000D03*
X54760000Y-88820000D03*
X54760000Y-91360000D03*
X54760000Y-93900000D03*
X54760000Y-96440000D03*
X54760000Y-98980000D03*
X54760000Y-101520000D03*
X54760000Y-104060000D03*
X70000000Y-104060000D03*
X70000000Y-101520000D03*
X70000000Y-98980000D03*
X70000000Y-96440000D03*
X70000000Y-93900000D03*
X70000000Y-91360000D03*
X70000000Y-88820000D03*
X70000000Y-86280000D03*
X70000000Y-83740000D03*
X70000000Y-81200000D03*
X70000000Y-78660000D03*
X70000000Y-76120000D03*
X70000000Y-73580000D03*
X70000000Y-71040000D03*
X70000000Y-68500000D03*
%TD*%
D24*
%TO.C,REF\u002A\u002A*%
X42680000Y-74900000D03*
D12*
X45220000Y-74900000D03*
X47760000Y-74900000D03*
%TD*%
D14*
%TO.C,REF\u002A\u002A*%
X33760000Y-70820000D03*
X33760000Y-80980000D03*
%TD*%
D10*
%TO.C,REF\u002A\u002A*%
X44760000Y-62400000D03*
X38260000Y-62400000D03*
X44760000Y-57900000D03*
X38260000Y-57900000D03*
%TD*%
D17*
%TO.C,REF\u002A\u002A*%
X30610000Y-36400000D03*
X31093274Y-35233274D03*
X31093274Y-37566726D03*
X32260000Y-34750000D03*
D18*
X32260000Y-36400000D03*
D17*
X32260000Y-38050000D03*
X33426726Y-35233274D03*
X33426726Y-37566726D03*
X33910000Y-36400000D03*
%TD*%
D12*
%TO.C,REF\u002A\u002A*%
X41460000Y-108425000D03*
X45060000Y-108425000D03*
D13*
X41460000Y-102425000D03*
D14*
X45060000Y-102425000D03*
%TD*%
M02*
