%TF.GenerationSoftware,KiCad,Pcbnew,10.0.3*%
%TF.CreationDate,2026-05-29T20:04:58+02:00*%
%TF.ProjectId,sensory_support_device,73656e73-6f72-4795-9f73-7570706f7274,rev?*%
%TF.SameCoordinates,Original*%
%TF.FileFunction,Legend,Top*%
%TF.FilePolarity,Positive*%
%FSLAX46Y46*%
G04 Gerber Fmt 4.6, Leading zero omitted, Abs format (unit mm)*
G04 Created by KiCad (PCBNEW 10.0.3) date 2026-05-29 20:04:58*
%MOMM*%
%LPD*%
G01*
G04 APERTURE LIST*
%ADD10C,0.300000*%
%ADD11C,0.100000*%
%ADD12C,0.120000*%
G04 APERTURE END LIST*
D10*
X37928796Y-55170114D02*
X38171653Y-55241542D01*
X38171653Y-55241542D02*
X38252606Y-55312971D01*
X38252606Y-55312971D02*
X38333558Y-55455828D01*
X38333558Y-55455828D02*
X38333558Y-55670114D01*
X38333558Y-55670114D02*
X38252606Y-55812971D01*
X38252606Y-55812971D02*
X38171653Y-55884400D01*
X38171653Y-55884400D02*
X38009748Y-55955828D01*
X38009748Y-55955828D02*
X37362129Y-55955828D01*
X37362129Y-55955828D02*
X37362129Y-54455828D01*
X37362129Y-54455828D02*
X37928796Y-54455828D01*
X37928796Y-54455828D02*
X38090701Y-54527257D01*
X38090701Y-54527257D02*
X38171653Y-54598685D01*
X38171653Y-54598685D02*
X38252606Y-54741542D01*
X38252606Y-54741542D02*
X38252606Y-54884400D01*
X38252606Y-54884400D02*
X38171653Y-55027257D01*
X38171653Y-55027257D02*
X38090701Y-55098685D01*
X38090701Y-55098685D02*
X37928796Y-55170114D01*
X37928796Y-55170114D02*
X37362129Y-55170114D01*
X39062129Y-54455828D02*
X39062129Y-55670114D01*
X39062129Y-55670114D02*
X39143082Y-55812971D01*
X39143082Y-55812971D02*
X39224034Y-55884400D01*
X39224034Y-55884400D02*
X39385939Y-55955828D01*
X39385939Y-55955828D02*
X39709748Y-55955828D01*
X39709748Y-55955828D02*
X39871653Y-55884400D01*
X39871653Y-55884400D02*
X39952606Y-55812971D01*
X39952606Y-55812971D02*
X40033558Y-55670114D01*
X40033558Y-55670114D02*
X40033558Y-54455828D01*
X40600224Y-54455828D02*
X41571653Y-54455828D01*
X41085939Y-55955828D02*
X41085939Y-54455828D01*
X41895462Y-54455828D02*
X42866891Y-54455828D01*
X42381177Y-55955828D02*
X42381177Y-54455828D01*
X43757367Y-54455828D02*
X44081176Y-54455828D01*
X44081176Y-54455828D02*
X44243081Y-54527257D01*
X44243081Y-54527257D02*
X44404986Y-54670114D01*
X44404986Y-54670114D02*
X44485938Y-54955828D01*
X44485938Y-54955828D02*
X44485938Y-55455828D01*
X44485938Y-55455828D02*
X44404986Y-55741542D01*
X44404986Y-55741542D02*
X44243081Y-55884400D01*
X44243081Y-55884400D02*
X44081176Y-55955828D01*
X44081176Y-55955828D02*
X43757367Y-55955828D01*
X43757367Y-55955828D02*
X43595462Y-55884400D01*
X43595462Y-55884400D02*
X43433557Y-55741542D01*
X43433557Y-55741542D02*
X43352605Y-55455828D01*
X43352605Y-55455828D02*
X43352605Y-54955828D01*
X43352605Y-54955828D02*
X43433557Y-54670114D01*
X43433557Y-54670114D02*
X43595462Y-54527257D01*
X43595462Y-54527257D02*
X43757367Y-54455828D01*
X45214509Y-55955828D02*
X45214509Y-54455828D01*
X45214509Y-54455828D02*
X46185938Y-55955828D01*
X46185938Y-55955828D02*
X46185938Y-54455828D01*
%TO.C,U1*%
D11*
X52580000Y-39610000D02*
X90680000Y-39610000D01*
X52580000Y-62470000D02*
X52580000Y-39610000D01*
X90680000Y-39610000D02*
X90680000Y-62470000D01*
X90680000Y-62470000D02*
X52580000Y-62470000D01*
X52580000Y-39610000D02*
X90680000Y-39610000D01*
X90680000Y-62470000D01*
X52580000Y-62470000D01*
X52580000Y-39610000D01*
%TO.C,REF\u002A\u002A*%
D12*
X74750000Y-103485000D02*
X74750000Y-107815000D01*
X75970000Y-103485000D02*
X75970000Y-107815000D01*
X78350000Y-103485000D02*
X78350000Y-107815000D01*
X79570000Y-103485000D02*
X79570000Y-107815000D01*
X81950000Y-103485000D02*
X81950000Y-107815000D01*
X83170000Y-103485000D02*
X83170000Y-107815000D01*
X85550000Y-103485000D02*
X85550000Y-107815000D01*
X86770000Y-103485000D02*
X86770000Y-107815000D01*
X39970000Y-45164000D02*
X39970000Y-45320000D01*
X39970000Y-47480000D02*
X39970000Y-47636000D01*
X39970000Y-45164484D02*
G75*
G02*
X43201437Y-45320000I1560000J-1235516D01*
G01*
X40489039Y-45320000D02*
G75*
G02*
X42570961Y-45320000I1040961J-1080000D01*
G01*
X42570961Y-47480000D02*
G75*
G02*
X40489039Y-47480000I-1040961J1080000D01*
G01*
X43201437Y-47480000D02*
G75*
G02*
X39970000Y-47635516I-1671437J1080000D01*
G01*
X85372500Y-73780000D02*
X93412500Y-73780000D01*
X85372500Y-76600000D02*
X85372500Y-73780000D01*
X85372500Y-94520000D02*
X85372500Y-77200000D01*
X87492500Y-73780000D02*
X87492500Y-75020000D01*
X87492500Y-78780000D02*
X87492500Y-81357000D01*
X87492500Y-82443000D02*
X87492500Y-86357000D01*
X87492500Y-87443000D02*
X87492500Y-91357000D01*
X87492500Y-92443000D02*
X87492500Y-94520000D01*
X88792500Y-73780000D02*
X88792500Y-75020000D01*
X88792500Y-78780000D02*
X88792500Y-80088000D01*
X88792500Y-83712000D02*
X88792500Y-85088000D01*
X88792500Y-88712000D02*
X88792500Y-90088000D01*
X88792500Y-93712000D02*
X88792500Y-94520000D01*
X89792500Y-73780000D02*
X89792500Y-75020000D01*
X89792500Y-78780000D02*
X89792500Y-80088000D01*
X89792500Y-83712000D02*
X89792500Y-85088000D01*
X89792500Y-88712000D02*
X89792500Y-90088000D01*
X89792500Y-93712000D02*
X89792500Y-94520000D01*
X93412500Y-73780000D02*
X93412500Y-94520000D01*
X93412500Y-94520000D02*
X85372500Y-94520000D01*
X85372500Y-76900000D02*
X84762500Y-77340000D01*
X84762500Y-76460000D01*
X85372500Y-76900000D01*
G36*
X85372500Y-76900000D02*
G01*
X84762500Y-77340000D01*
X84762500Y-76460000D01*
X85372500Y-76900000D01*
G37*
X31107500Y-86530000D02*
X39147500Y-86530000D01*
X31107500Y-97270000D02*
X31107500Y-86530000D01*
X34727500Y-87338000D02*
X34727500Y-86530000D01*
X34727500Y-92270000D02*
X34727500Y-90962000D01*
X34727500Y-97270000D02*
X34727500Y-96030000D01*
X35727500Y-87338000D02*
X35727500Y-86530000D01*
X35727500Y-92270000D02*
X35727500Y-90962000D01*
X35727500Y-97270000D02*
X35727500Y-96030000D01*
X37027500Y-88607000D02*
X37027500Y-86530000D01*
X37027500Y-92270000D02*
X37027500Y-89693000D01*
X37027500Y-97270000D02*
X37027500Y-96030000D01*
X39147500Y-86530000D02*
X39147500Y-93850000D01*
X39147500Y-94450000D02*
X39147500Y-97270000D01*
X39147500Y-97270000D02*
X31107500Y-97270000D01*
X39147500Y-94150000D02*
X39757500Y-93710000D01*
X39757500Y-94590000D01*
X39147500Y-94150000D01*
G36*
X39757500Y-94590000D02*
G01*
X39147500Y-94150000D01*
X39757500Y-93710000D01*
X39757500Y-94590000D01*
G37*
X53360000Y-64560000D02*
X53360000Y-67230000D01*
X53360000Y-69770000D02*
X53360000Y-108000000D01*
X53360000Y-108000000D02*
X58440000Y-108000000D01*
X56030000Y-67230000D02*
X53360000Y-67230000D01*
X56030000Y-69770000D02*
X53360000Y-69770000D01*
X56030000Y-69770000D02*
X56030000Y-67230000D01*
X56030000Y-69770000D02*
X56030000Y-105330000D01*
X56030000Y-105330000D02*
X53360000Y-105330000D01*
X58440000Y-100120000D02*
X66320000Y-100120000D01*
X58440000Y-110540000D02*
X58440000Y-100120000D01*
X66320000Y-100120000D02*
X66320000Y-110540000D01*
X66320000Y-110540000D02*
X58440000Y-110540000D01*
X68730000Y-67230000D02*
X68730000Y-105330000D01*
X68730000Y-67230000D02*
X71400000Y-67230000D01*
X68730000Y-105330000D02*
X71400000Y-105330000D01*
X71400000Y-64560000D02*
X53360000Y-64560000D01*
X71400000Y-108000000D02*
X66320000Y-108000000D01*
X71400000Y-108000000D02*
X71400000Y-64560000D01*
X43280000Y-76600000D02*
X47130000Y-76600000D01*
X42863600Y-73801193D02*
G75*
G02*
X45220000Y-72300000I2356400J-1098807D01*
G01*
X43280000Y-76600000D02*
G75*
G02*
X42897369Y-76022045I1940000J1700000D01*
G01*
X45220000Y-72300000D02*
G75*
G02*
X47576400Y-73801193I0J-2600000D01*
G01*
X47522383Y-76012264D02*
G75*
G02*
X47130000Y-76600000I-2302383J1112264D01*
G01*
X33760000Y-71860000D02*
X33760000Y-72630000D01*
X33760000Y-79940000D02*
X33760000Y-79170000D01*
X32390000Y-72630000D02*
X35130000Y-72630000D01*
X35130000Y-79170000D01*
X32390000Y-79170000D01*
X32390000Y-72630000D01*
X38010000Y-59400000D02*
X38010000Y-60900000D01*
X39260000Y-63400000D02*
X43760000Y-63400000D01*
X43760000Y-56900000D02*
X39260000Y-56900000D01*
X45010000Y-60900000D02*
X45010000Y-59400000D01*
X40850000Y-103485000D02*
X40850000Y-107815000D01*
X42070000Y-103485000D02*
X42070000Y-107815000D01*
X44450000Y-103485000D02*
X44450000Y-107815000D01*
X45670000Y-103485000D02*
X45670000Y-107815000D01*
%TD*%
M02*
